<?xml version="1.0" standalone="no"?>
<!DOCTYPE svg PUBLIC "-//W3C//DTD SVG 20010904//EN"
 "http://www.w3.org/TR/2001/REC-SVG-20010904/DTD/svg10.dtd">
<svg version="1.0" xmlns="http://www.w3.org/2000/svg"
 width="135.000000pt" height="135.000000pt" viewBox="0 0 135.000000 135.000000"
 preserveAspectRatio="xMidYMid meet">
<metadata>
Created by potrace 1.11, written by Peter Selinger 2001-2013
</metadata>
<g transform="translate(0.000000,135.000000) scale(0.100000,-0.100000)"
fill="#000000" stroke="none">
<path d="M0 675 l0 -675 675 0 675 0 0 675 0 675 -675 0 -675 0 0 -675z m690
198 l0 -47 28 27 c58 55 171 74 250 41 62 -25 116 -86 136 -151 7 -21 4 -23
-36 -23 -39 0 -45 3 -62 34 -26 48 -87 80 -142 73 -54 -6 -89 -28 -116 -73
-19 -33 -22 -34 -84 -34 l-64 0 0 55 0 55 -75 0 -75 0 0 45 0 45 120 0 120 0
0 -47z m-366 -272 c57 -110 208 -116 268 -12 23 40 24 41 78 41 54 0 55 -1 78
-41 60 -104 211 -98 268 12 12 25 21 29 55 29 43 0 43 0 19 -66 -25 -66 -128
-134 -205 -134 -71 0 -117 19 -169 71 -48 48 -49 49 -63 29 -99 -141 -320
-127 -396 25 -8 17 -18 40 -21 53 -7 20 -4 22 33 22 34 0 43 -4 55 -29z m-12
-220 c8 12 10 12 15 0 5 -11 7 -11 15 0 7 11 8 9 6 -6 -4 -27 -52 -27 -55 0
-2 12 0 14 3 6 5 -11 8 -11 16 0z m72 1 c-6 -4 -14 -14 -17 -22 -4 -10 -6 -8
-6 8 -1 15 5 22 17 22 10 0 13 -3 6 -8z m45 -14 c-1 -21 -2 -21 -7 -3 l-5 20
-8 -20 c-7 -19 -8 -19 -8 3 -1 13 5 22 14 22 9 0 15 -9 14 -22z m94 -3 c-7
-21 -13 -19 -13 6 0 11 4 18 10 14 5 -3 7 -12 3 -20z m37 7 c0 -10 -7 -19 -15
-19 -18 0 -19 9 -3 25 16 16 18 15 18 -6z m50 8 c0 -5 -8 -6 -17 -3 -12 5 -15
2 -10 -10 3 -9 2 -17 -3 -17 -6 0 -10 9 -10 20 0 13 7 20 20 20 11 0 20 -4 20
-10z m35 0 c-17 -7 -17 -9 -2 -9 29 -1 19 -16 -12 -16 -25 -1 -27 1 -17 17 6
10 20 18 31 17 20 0 20 0 0 -9z m32 -22 c-3 -7 -5 -2 -5 12 0 14 2 19 5 13 2
-7 2 -19 0 -25z m56 12 c-3 -11 -7 -20 -9 -20 -2 0 -4 9 -4 20 0 11 4 20 9 20
5 0 7 -9 4 -20z m52 10 c-8 -13 1 -13 25 2 15 10 22 10 31 1 18 -18 -8 -48
-27 -32 -8 6 -14 8 -14 4 0 -4 -7 -2 -15 5 -17 14 -20 30 -4 30 5 0 7 -4 4
-10z m133 -10 c7 16 11 19 11 9 1 -19 -23 -42 -32 -32 -4 3 -7 16 -6 27 1 18
2 18 9 -4 l7 -25 11 25z m61 -2 c-1 -21 -2 -21 -7 -3 -5 20 -5 20 -12 1 -6
-19 -7 -19 -12 2 -5 17 -2 22 13 22 13 0 19 -7 18 -22z m58 6 c8 -22 -18 -37
-36 -20 -7 8 -10 19 -7 25 10 16 36 13 43 -5z m46 8 c3 7 6 3 6 -9 1 -25 -9
-29 -27 -11 -17 17 -15 33 2 19 11 -9 15 -9 19 1z m34 -14 c2 -18 0 -20 -7 -8
-12 18 -13 30 -2 30 4 0 9 -10 9 -22z m-633 -7 c-9 -9 -34 -9 -34 -1 0 5 9 8
20 7 10 -1 17 -3 14 -6z"/>
<path d="M812 369 c2 -6 8 -10 13 -10 5 0 11 4 13 10 2 6 -4 11 -13 11 -9 0
-15 -5 -13 -11z"/>
<path d="M1002 369 c2 -6 8 -10 13 -10 5 0 11 4 13 10 2 6 -4 11 -13 11 -9 0
-15 -5 -13 -11z"/>
</g>
</svg>
